# xmcd
#
# Track frame offsets:
#	150
#	16337
#	40420
#	58572
#	97262
#	114695
#	126612
#	150072
#	164172
#	179722
#	199375
#	212140
#	232440
#	244750
#	261240
#	284517
#
# Disc length: 3966
#
# Revision: 1
# Processed by: cddbd v1.5.1PL0 Copyright (c) Steve Scherf et al.
# Submitted via: OrangeCD 4.3
# Normalized: r0:DSETVAR1
#
DISCID=030f7c10
DTITLE=Various Artist - The Blues Had A Baby And They Named It Rock And Roll
DYEAR=1995
DGENRE=Blues
TTITLE0=Muddy Waters - The Blues Had A Baby And They Named It Rock And Roll
TTITLE1=Stevie Ray Vaughan - Texas Flood
TTITLE2=John Hammond - You Don't Love Me
TTITLE3=B.B. King - Why I Sing The Blues
TTITLE4=ZZ Top - La Grange
TTITLE5=John Lee Hooker - Boom, Boom
TTITLE6=Howlin' Wolf and Eric Clapton - The Red Rooster
TTITLE7=The Paul Butterfield Blues Band - Born In Chicago
TTITLE8=Albert King - Born Under A Bad Sign
TTITLE9=Tommy Emmanuel - Stevie's Blues
TTITLE10=Gary Moore - Too Tired
TTITLE11=Buddy Guy - Damn Right I Got The Blues
TTITLE12=The Fabulous Thunderbird - Wrap It Up
TTITLE13=Jeff Beck and Rod Stewart - Rock My Pilmsoul
TTITLE14=Rory Gallagher - Empire State Express
TTITLE15=Johnny Winter - Messin' With The Kid
EXTD=
EXTT0=
EXTT1=
EXTT2=
EXTT3=
EXTT4=
EXTT5=
EXTT6=
EXTT7=
EXTT8=
EXTT9=
EXTT10=
EXTT11=
EXTT12=
EXTT13=
EXTT14=
EXTT15=
PLAYORDER=
